G04 Layer: TopSilkLayer*
G04 EasyEDA v6.3.41, 2020-05-05T16:43:25+03:00*
G04 77c085e715fd4d51943bb8e8cf624b98,92992e1295734089b6e5f9c93eeafd8a,10*
G04 Gerber Generator version 0.2*
G04 Scale: 100 percent, Rotated: No, Reflected: No *
G04 Dimensions in inches *
G04 leading zeros omitted , absolute positions ,2 integer and 4 decimal *
%FSLAX24Y24*%
%MOIN*%
G90*
G70D02*

%ADD10C,0.010000*%
%ADD19C,0.006000*%

%LPD*%
G54D10*
G01X4236Y4480D02*
G01X4669Y4480D01*
G01X4669Y2515D01*
G01X4669Y2515D02*
G01X3342Y2515D01*
G01X3342Y2515D02*
G01X3342Y4480D01*
G01X3771Y4480D01*
G01X4236Y8480D02*
G01X4669Y8480D01*
G01X4669Y6515D01*
G01X4669Y6515D02*
G01X3342Y6515D01*
G01X3342Y6515D02*
G01X3342Y8480D01*
G01X3771Y8480D01*
G01X24600Y15000D02*
G01X24600Y15000D01*
G01X23400Y15000D01*
G01X23400Y6900D01*
G01X24600Y6900D01*
G01X24600Y15000D01*
G01X24600Y14000D02*
G01X23400Y14000D01*
G01X19027Y11015D02*
G01X19972Y11015D01*
G01X19972Y12393D02*
G01X19972Y12984D01*
G01X19027Y12393D02*
G01X19027Y12984D01*
G01X19972Y11606D02*
G01X19972Y11015D01*
G01X19027Y11606D02*
G01X19027Y11015D01*
G01X19027Y12984D02*
G01X19972Y12984D01*
G01X19027Y8015D02*
G01X19972Y8015D01*
G01X19972Y9393D02*
G01X19972Y9984D01*
G01X19027Y9393D02*
G01X19027Y9984D01*
G01X19972Y8606D02*
G01X19972Y8015D01*
G01X19027Y8606D02*
G01X19027Y8015D01*
G01X19027Y9984D02*
G01X19972Y9984D01*
G01X21972Y5484D02*
G01X21027Y5484D01*
G01X21027Y4106D02*
G01X21027Y3515D01*
G01X21972Y4106D02*
G01X21972Y3515D01*
G01X21027Y4893D02*
G01X21027Y5484D01*
G01X21972Y4893D02*
G01X21972Y5484D01*
G01X21972Y3515D02*
G01X21027Y3515D01*
G01X21972Y8484D02*
G01X21027Y8484D01*
G01X21027Y7106D02*
G01X21027Y6515D01*
G01X21972Y7106D02*
G01X21972Y6515D01*
G01X21027Y7893D02*
G01X21027Y8484D01*
G01X21972Y7893D02*
G01X21972Y8484D01*
G01X21972Y6515D02*
G01X21027Y6515D01*
G01X19027Y5015D02*
G01X19972Y5015D01*
G01X19972Y6393D02*
G01X19972Y6984D01*
G01X19027Y6393D02*
G01X19027Y6984D01*
G01X19972Y5606D02*
G01X19972Y5015D01*
G01X19027Y5606D02*
G01X19027Y5015D01*
G01X19027Y6984D02*
G01X19972Y6984D01*
G01X4484Y10527D02*
G01X4484Y11472D01*
G01X3106Y11472D02*
G01X2515Y11472D01*
G01X3106Y10527D02*
G01X2515Y10527D01*
G01X3893Y11472D02*
G01X4484Y11472D01*
G01X3893Y10527D02*
G01X4484Y10527D01*
G01X2515Y10527D02*
G01X2515Y11472D01*
G01X10515Y9972D02*
G01X10515Y9027D01*
G01X11893Y9027D02*
G01X12484Y9027D01*
G01X11893Y9972D02*
G01X12484Y9972D01*
G01X11106Y9027D02*
G01X10515Y9027D01*
G01X11106Y9972D02*
G01X10515Y9972D01*
G01X12484Y9972D02*
G01X12484Y9027D01*
G01X10515Y7972D02*
G01X10515Y7027D01*
G01X11893Y7027D02*
G01X12484Y7027D01*
G01X11893Y7972D02*
G01X12484Y7972D01*
G01X11106Y7027D02*
G01X10515Y7027D01*
G01X11106Y7972D02*
G01X10515Y7972D01*
G01X12484Y7972D02*
G01X12484Y7027D01*
G01X23972Y18984D02*
G01X23027Y18984D01*
G01X23027Y17606D02*
G01X23027Y17015D01*
G01X23972Y17606D02*
G01X23972Y17015D01*
G01X23027Y18393D02*
G01X23027Y18984D01*
G01X23972Y18393D02*
G01X23972Y18984D01*
G01X23972Y17015D02*
G01X23027Y17015D01*
G01X10515Y3972D02*
G01X10515Y3027D01*
G01X11893Y3027D02*
G01X12484Y3027D01*
G01X11893Y3972D02*
G01X12484Y3972D01*
G01X11106Y3027D02*
G01X10515Y3027D01*
G01X11106Y3972D02*
G01X10515Y3972D01*
G01X12484Y3972D02*
G01X12484Y3027D01*
G01X10515Y17972D02*
G01X10515Y17027D01*
G01X11893Y17027D02*
G01X12484Y17027D01*
G01X11893Y17972D02*
G01X12484Y17972D01*
G01X11106Y17027D02*
G01X10515Y17027D01*
G01X11106Y17972D02*
G01X10515Y17972D01*
G01X12484Y17972D02*
G01X12484Y17027D01*
G01X10515Y15972D02*
G01X10515Y15027D01*
G01X11893Y15027D02*
G01X12484Y15027D01*
G01X11893Y15972D02*
G01X12484Y15972D01*
G01X11106Y15027D02*
G01X10515Y15027D01*
G01X11106Y15972D02*
G01X10515Y15972D01*
G01X12484Y15972D02*
G01X12484Y15027D01*
G01X10515Y13972D02*
G01X10515Y13027D01*
G01X11893Y13027D02*
G01X12484Y13027D01*
G01X11893Y13972D02*
G01X12484Y13972D01*
G01X11106Y13027D02*
G01X10515Y13027D01*
G01X11106Y13972D02*
G01X10515Y13972D01*
G01X12484Y13972D02*
G01X12484Y13027D01*
G01X10515Y11972D02*
G01X10515Y11027D01*
G01X11893Y11027D02*
G01X12484Y11027D01*
G01X11893Y11972D02*
G01X12484Y11972D01*
G01X11106Y11027D02*
G01X10515Y11027D01*
G01X11106Y11972D02*
G01X10515Y11972D01*
G01X12484Y11972D02*
G01X12484Y11027D01*
G01X19027Y17015D02*
G01X19972Y17015D01*
G01X19972Y18393D02*
G01X19972Y18984D01*
G01X19027Y18393D02*
G01X19027Y18984D01*
G01X19972Y17606D02*
G01X19972Y17015D01*
G01X19027Y17606D02*
G01X19027Y17015D01*
G01X19027Y18984D02*
G01X19972Y18984D01*
G01X19027Y14015D02*
G01X19972Y14015D01*
G01X19972Y15393D02*
G01X19972Y15984D01*
G01X19027Y15393D02*
G01X19027Y15984D01*
G01X19972Y14606D02*
G01X19972Y14015D01*
G01X19027Y14606D02*
G01X19027Y14015D01*
G01X19027Y15984D02*
G01X19972Y15984D01*
G01X21027Y15515D02*
G01X21972Y15515D01*
G01X21972Y16893D02*
G01X21972Y17484D01*
G01X21027Y16893D02*
G01X21027Y17484D01*
G01X21972Y16106D02*
G01X21972Y15515D01*
G01X21027Y16106D02*
G01X21027Y15515D01*
G01X21027Y17484D02*
G01X21972Y17484D01*
G01X21972Y11484D02*
G01X21027Y11484D01*
G01X21027Y10106D02*
G01X21027Y9515D01*
G01X21972Y10106D02*
G01X21972Y9515D01*
G01X21027Y10893D02*
G01X21027Y11484D01*
G01X21972Y10893D02*
G01X21972Y11484D01*
G01X21972Y9515D02*
G01X21027Y9515D01*
G01X10515Y5972D02*
G01X10515Y5027D01*
G01X11893Y5027D02*
G01X12484Y5027D01*
G01X11893Y5972D02*
G01X12484Y5972D01*
G01X11106Y5027D02*
G01X10515Y5027D01*
G01X11106Y5972D02*
G01X10515Y5972D01*
G01X12484Y5972D02*
G01X12484Y5027D01*
G01X14161Y11000D02*
G01X14161Y19000D01*
G01X16838Y11000D02*
G01X16838Y19000D01*
G01X16838Y11000D02*
G01X14161Y11000D01*
G01X16838Y19000D02*
G01X15893Y19000D01*
G01X14161Y19000D02*
G01X15106Y19000D01*
G01X14161Y2000D02*
G01X14161Y10000D01*
G01X16838Y2000D02*
G01X16838Y10000D01*
G01X16838Y2000D02*
G01X14161Y2000D01*
G01X16838Y10000D02*
G01X15893Y10000D01*
G01X14161Y10000D02*
G01X15106Y10000D01*
G54D19*
G01X18347Y11490D02*
G01X18327Y11490D01*
G01X18286Y11511D01*
G01X18265Y11530D01*
G01X18246Y11571D01*
G01X18246Y11653D01*
G01X18265Y11694D01*
G01X18286Y11715D01*
G01X18327Y11736D01*
G01X18368Y11736D01*
G01X18410Y11715D01*
G01X18471Y11675D01*
G01X18675Y11469D01*
G01X18675Y11755D01*
G01X18246Y12096D02*
G01X18531Y11890D01*
G01X18531Y12198D01*
G01X18246Y12096D02*
G01X18675Y12096D01*
G01X18246Y12455D02*
G01X18265Y12394D01*
G01X18327Y12353D01*
G01X18430Y12332D01*
G01X18490Y12332D01*
G01X18593Y12353D01*
G01X18655Y12394D01*
G01X18675Y12455D01*
G01X18675Y12496D01*
G01X18655Y12557D01*
G01X18593Y12598D01*
G01X18490Y12619D01*
G01X18430Y12619D01*
G01X18327Y12598D01*
G01X18265Y12557D01*
G01X18246Y12496D01*
G01X18246Y12455D01*
G01X18246Y8540D02*
G01X18246Y8765D01*
G01X18410Y8642D01*
G01X18410Y8705D01*
G01X18430Y8744D01*
G01X18450Y8765D01*
G01X18511Y8786D01*
G01X18552Y8786D01*
G01X18614Y8765D01*
G01X18655Y8725D01*
G01X18675Y8663D01*
G01X18675Y8601D01*
G01X18655Y8540D01*
G01X18635Y8519D01*
G01X18593Y8500D01*
G01X18389Y9186D02*
G01X18450Y9167D01*
G01X18490Y9126D01*
G01X18511Y9065D01*
G01X18511Y9044D01*
G01X18490Y8982D01*
G01X18450Y8942D01*
G01X18389Y8921D01*
G01X18368Y8921D01*
G01X18306Y8942D01*
G01X18265Y8982D01*
G01X18246Y9044D01*
G01X18246Y9065D01*
G01X18265Y9126D01*
G01X18306Y9167D01*
G01X18389Y9186D01*
G01X18490Y9186D01*
G01X18593Y9167D01*
G01X18655Y9126D01*
G01X18675Y9065D01*
G01X18675Y9023D01*
G01X18655Y8961D01*
G01X18614Y8942D01*
G01X18246Y9444D02*
G01X18265Y9384D01*
G01X18327Y9342D01*
G01X18430Y9321D01*
G01X18490Y9321D01*
G01X18593Y9342D01*
G01X18655Y9384D01*
G01X18675Y9444D01*
G01X18675Y9486D01*
G01X18655Y9546D01*
G01X18593Y9588D01*
G01X18490Y9609D01*
G01X18430Y9609D01*
G01X18327Y9588D01*
G01X18265Y9546D01*
G01X18246Y9486D01*
G01X18246Y9444D01*
G01X20307Y3880D02*
G01X20286Y3921D01*
G01X20226Y3982D01*
G01X20655Y3982D01*
G01X20226Y4363D02*
G01X20226Y4157D01*
G01X20410Y4138D01*
G01X20389Y4157D01*
G01X20368Y4219D01*
G01X20368Y4280D01*
G01X20389Y4342D01*
G01X20430Y4382D01*
G01X20492Y4403D01*
G01X20532Y4403D01*
G01X20593Y4382D01*
G01X20635Y4342D01*
G01X20655Y4280D01*
G01X20655Y4219D01*
G01X20635Y4157D01*
G01X20614Y4138D01*
G01X20573Y4117D01*
G01X20226Y4661D02*
G01X20246Y4600D01*
G01X20307Y4559D01*
G01X20410Y4538D01*
G01X20471Y4538D01*
G01X20573Y4559D01*
G01X20635Y4600D01*
G01X20655Y4661D01*
G01X20655Y4701D01*
G01X20635Y4763D01*
G01X20573Y4805D01*
G01X20471Y4825D01*
G01X20410Y4825D01*
G01X20307Y4805D01*
G01X20246Y4763D01*
G01X20226Y4701D01*
G01X20226Y4661D01*
G01X20327Y6869D02*
G01X20307Y6869D01*
G01X20267Y6890D01*
G01X20246Y6911D01*
G01X20226Y6951D01*
G01X20226Y7034D01*
G01X20246Y7075D01*
G01X20267Y7094D01*
G01X20307Y7115D01*
G01X20348Y7115D01*
G01X20389Y7094D01*
G01X20451Y7055D01*
G01X20655Y6850D01*
G01X20655Y7136D01*
G01X20226Y7476D02*
G01X20511Y7271D01*
G01X20511Y7578D01*
G01X20226Y7476D02*
G01X20655Y7476D01*
G01X20226Y7836D02*
G01X20246Y7775D01*
G01X20307Y7734D01*
G01X20410Y7713D01*
G01X20471Y7713D01*
G01X20573Y7734D01*
G01X20635Y7775D01*
G01X20655Y7836D01*
G01X20655Y7876D01*
G01X20635Y7938D01*
G01X20573Y7978D01*
G01X20471Y8000D01*
G01X20410Y8000D01*
G01X20307Y7978D01*
G01X20246Y7938D01*
G01X20226Y7876D01*
G01X20226Y7836D01*
G01X18246Y5240D02*
G01X18246Y5465D01*
G01X18410Y5342D01*
G01X18410Y5405D01*
G01X18430Y5444D01*
G01X18450Y5465D01*
G01X18511Y5486D01*
G01X18552Y5486D01*
G01X18614Y5465D01*
G01X18655Y5425D01*
G01X18675Y5363D01*
G01X18675Y5301D01*
G01X18655Y5240D01*
G01X18635Y5219D01*
G01X18593Y5200D01*
G01X18389Y5886D02*
G01X18450Y5867D01*
G01X18490Y5826D01*
G01X18511Y5765D01*
G01X18511Y5744D01*
G01X18490Y5682D01*
G01X18450Y5642D01*
G01X18389Y5621D01*
G01X18368Y5621D01*
G01X18306Y5642D01*
G01X18265Y5682D01*
G01X18246Y5744D01*
G01X18246Y5765D01*
G01X18265Y5826D01*
G01X18306Y5867D01*
G01X18389Y5886D01*
G01X18490Y5886D01*
G01X18593Y5867D01*
G01X18655Y5826D01*
G01X18675Y5765D01*
G01X18675Y5723D01*
G01X18655Y5661D01*
G01X18614Y5642D01*
G01X18246Y6144D02*
G01X18265Y6084D01*
G01X18327Y6042D01*
G01X18430Y6021D01*
G01X18490Y6021D01*
G01X18593Y6042D01*
G01X18655Y6084D01*
G01X18675Y6144D01*
G01X18675Y6186D01*
G01X18655Y6246D01*
G01X18593Y6288D01*
G01X18490Y6309D01*
G01X18430Y6309D01*
G01X18327Y6288D01*
G01X18265Y6246D01*
G01X18246Y6186D01*
G01X18246Y6144D01*
G01X3064Y12073D02*
G01X2860Y11788D01*
G01X3167Y11788D01*
G01X3064Y12073D02*
G01X3064Y11644D01*
G01X3322Y11746D02*
G01X3302Y11726D01*
G01X3322Y11705D01*
G01X3343Y11726D01*
G01X3322Y11746D01*
G01X3764Y12073D02*
G01X3560Y11644D01*
G01X3477Y12073D02*
G01X3764Y12073D01*
G01X3898Y12073D02*
G01X3898Y11644D01*
G01X4103Y11930D02*
G01X3898Y11726D01*
G01X3981Y11807D02*
G01X4123Y11644D01*
G01X10821Y10613D02*
G01X11046Y10613D01*
G01X10922Y10450D01*
G01X10985Y10450D01*
G01X11025Y10430D01*
G01X11046Y10409D01*
G01X11065Y10348D01*
G01X11065Y10307D01*
G01X11046Y10246D01*
G01X11005Y10205D01*
G01X10943Y10184D01*
G01X10881Y10184D01*
G01X10821Y10205D01*
G01X10800Y10225D01*
G01X10780Y10265D01*
G01X11242Y10613D02*
G01X11467Y10613D01*
G01X11344Y10450D01*
G01X11406Y10450D01*
G01X11447Y10430D01*
G01X11467Y10409D01*
G01X11488Y10348D01*
G01X11488Y10307D01*
G01X11467Y10246D01*
G01X11426Y10205D01*
G01X11364Y10184D01*
G01X11303Y10184D01*
G01X11242Y10205D01*
G01X11222Y10225D01*
G01X11201Y10265D01*
G01X11744Y10613D02*
G01X11684Y10594D01*
G01X11643Y10532D01*
G01X11622Y10430D01*
G01X11622Y10369D01*
G01X11643Y10265D01*
G01X11684Y10205D01*
G01X11744Y10184D01*
G01X11785Y10184D01*
G01X11847Y10205D01*
G01X11889Y10265D01*
G01X11909Y10369D01*
G01X11909Y10430D01*
G01X11889Y10532D01*
G01X11847Y10594D01*
G01X11785Y10613D01*
G01X11744Y10613D01*
G01X10821Y8634D02*
G01X11046Y8634D01*
G01X10922Y8469D01*
G01X10985Y8469D01*
G01X11025Y8450D01*
G01X11046Y8430D01*
G01X11065Y8367D01*
G01X11065Y8326D01*
G01X11046Y8265D01*
G01X11005Y8225D01*
G01X10943Y8205D01*
G01X10881Y8205D01*
G01X10821Y8225D01*
G01X10800Y8244D01*
G01X10780Y8286D01*
G01X11242Y8634D02*
G01X11467Y8634D01*
G01X11344Y8469D01*
G01X11406Y8469D01*
G01X11447Y8450D01*
G01X11467Y8430D01*
G01X11488Y8367D01*
G01X11488Y8326D01*
G01X11467Y8265D01*
G01X11426Y8225D01*
G01X11364Y8205D01*
G01X11303Y8205D01*
G01X11242Y8225D01*
G01X11222Y8244D01*
G01X11201Y8286D01*
G01X11744Y8634D02*
G01X11684Y8613D01*
G01X11643Y8551D01*
G01X11622Y8450D01*
G01X11622Y8388D01*
G01X11643Y8286D01*
G01X11684Y8225D01*
G01X11744Y8205D01*
G01X11785Y8205D01*
G01X11847Y8225D01*
G01X11889Y8286D01*
G01X11909Y8388D01*
G01X11909Y8450D01*
G01X11889Y8551D01*
G01X11847Y8613D01*
G01X11785Y8634D01*
G01X11744Y8634D01*
G01X22288Y17409D02*
G01X22267Y17451D01*
G01X22206Y17511D01*
G01X22635Y17511D01*
G01X22206Y17769D02*
G01X22226Y17709D01*
G01X22288Y17667D01*
G01X22389Y17646D01*
G01X22451Y17646D01*
G01X22553Y17667D01*
G01X22614Y17709D01*
G01X22635Y17769D01*
G01X22635Y17811D01*
G01X22614Y17871D01*
G01X22553Y17913D01*
G01X22451Y17934D01*
G01X22389Y17934D01*
G01X22288Y17913D01*
G01X22226Y17871D01*
G01X22206Y17811D01*
G01X22206Y17769D01*
G01X22206Y18190D02*
G01X22226Y18130D01*
G01X22288Y18088D01*
G01X22389Y18069D01*
G01X22451Y18069D01*
G01X22553Y18088D01*
G01X22614Y18130D01*
G01X22635Y18190D01*
G01X22635Y18232D01*
G01X22614Y18294D01*
G01X22553Y18334D01*
G01X22451Y18355D01*
G01X22389Y18355D01*
G01X22288Y18334D01*
G01X22226Y18294D01*
G01X22206Y18232D01*
G01X22206Y18190D01*
G01X10821Y4673D02*
G01X11046Y4673D01*
G01X10922Y4509D01*
G01X10985Y4509D01*
G01X11025Y4490D01*
G01X11046Y4469D01*
G01X11065Y4407D01*
G01X11065Y4367D01*
G01X11046Y4305D01*
G01X11005Y4265D01*
G01X10943Y4244D01*
G01X10881Y4244D01*
G01X10821Y4265D01*
G01X10800Y4284D01*
G01X10780Y4326D01*
G01X11242Y4673D02*
G01X11467Y4673D01*
G01X11344Y4509D01*
G01X11406Y4509D01*
G01X11447Y4490D01*
G01X11467Y4469D01*
G01X11488Y4407D01*
G01X11488Y4367D01*
G01X11467Y4305D01*
G01X11426Y4265D01*
G01X11364Y4244D01*
G01X11303Y4244D01*
G01X11242Y4265D01*
G01X11222Y4284D01*
G01X11201Y4326D01*
G01X11744Y4673D02*
G01X11684Y4653D01*
G01X11643Y4592D01*
G01X11622Y4490D01*
G01X11622Y4428D01*
G01X11643Y4326D01*
G01X11684Y4265D01*
G01X11744Y4244D01*
G01X11785Y4244D01*
G01X11847Y4265D01*
G01X11889Y4326D01*
G01X11909Y4428D01*
G01X11909Y4490D01*
G01X11889Y4592D01*
G01X11847Y4653D01*
G01X11785Y4673D01*
G01X11744Y4673D01*
G01X10821Y18534D02*
G01X11046Y18534D01*
G01X10922Y18369D01*
G01X10985Y18369D01*
G01X11025Y18350D01*
G01X11046Y18330D01*
G01X11065Y18267D01*
G01X11065Y18227D01*
G01X11046Y18165D01*
G01X11005Y18125D01*
G01X10943Y18105D01*
G01X10881Y18105D01*
G01X10821Y18125D01*
G01X10800Y18144D01*
G01X10780Y18186D01*
G01X11242Y18534D02*
G01X11467Y18534D01*
G01X11344Y18369D01*
G01X11406Y18369D01*
G01X11447Y18350D01*
G01X11467Y18330D01*
G01X11488Y18267D01*
G01X11488Y18227D01*
G01X11467Y18165D01*
G01X11426Y18125D01*
G01X11364Y18105D01*
G01X11303Y18105D01*
G01X11242Y18125D01*
G01X11222Y18144D01*
G01X11201Y18186D01*
G01X11744Y18534D02*
G01X11684Y18513D01*
G01X11643Y18452D01*
G01X11622Y18350D01*
G01X11622Y18288D01*
G01X11643Y18186D01*
G01X11684Y18125D01*
G01X11744Y18105D01*
G01X11785Y18105D01*
G01X11847Y18125D01*
G01X11889Y18186D01*
G01X11909Y18288D01*
G01X11909Y18350D01*
G01X11889Y18452D01*
G01X11847Y18513D01*
G01X11785Y18534D01*
G01X11744Y18534D01*
G01X10821Y16553D02*
G01X11046Y16553D01*
G01X10922Y16390D01*
G01X10985Y16390D01*
G01X11025Y16369D01*
G01X11046Y16350D01*
G01X11065Y16288D01*
G01X11065Y16246D01*
G01X11046Y16186D01*
G01X11005Y16144D01*
G01X10943Y16125D01*
G01X10881Y16125D01*
G01X10821Y16144D01*
G01X10800Y16165D01*
G01X10780Y16205D01*
G01X11242Y16553D02*
G01X11467Y16553D01*
G01X11344Y16390D01*
G01X11406Y16390D01*
G01X11447Y16369D01*
G01X11467Y16350D01*
G01X11488Y16288D01*
G01X11488Y16246D01*
G01X11467Y16186D01*
G01X11426Y16144D01*
G01X11364Y16125D01*
G01X11303Y16125D01*
G01X11242Y16144D01*
G01X11222Y16165D01*
G01X11201Y16205D01*
G01X11744Y16553D02*
G01X11684Y16534D01*
G01X11643Y16471D01*
G01X11622Y16369D01*
G01X11622Y16309D01*
G01X11643Y16205D01*
G01X11684Y16144D01*
G01X11744Y16125D01*
G01X11785Y16125D01*
G01X11847Y16144D01*
G01X11889Y16205D01*
G01X11909Y16309D01*
G01X11909Y16369D01*
G01X11889Y16471D01*
G01X11847Y16534D01*
G01X11785Y16553D01*
G01X11744Y16553D01*
G01X10821Y14573D02*
G01X11046Y14573D01*
G01X10922Y14409D01*
G01X10985Y14409D01*
G01X11025Y14390D01*
G01X11046Y14369D01*
G01X11065Y14307D01*
G01X11065Y14267D01*
G01X11046Y14205D01*
G01X11005Y14165D01*
G01X10943Y14144D01*
G01X10881Y14144D01*
G01X10821Y14165D01*
G01X10800Y14184D01*
G01X10780Y14226D01*
G01X11242Y14573D02*
G01X11467Y14573D01*
G01X11344Y14409D01*
G01X11406Y14409D01*
G01X11447Y14390D01*
G01X11467Y14369D01*
G01X11488Y14307D01*
G01X11488Y14267D01*
G01X11467Y14205D01*
G01X11426Y14165D01*
G01X11364Y14144D01*
G01X11303Y14144D01*
G01X11242Y14165D01*
G01X11222Y14184D01*
G01X11201Y14226D01*
G01X11744Y14573D02*
G01X11684Y14553D01*
G01X11643Y14492D01*
G01X11622Y14390D01*
G01X11622Y14328D01*
G01X11643Y14226D01*
G01X11684Y14165D01*
G01X11744Y14144D01*
G01X11785Y14144D01*
G01X11847Y14165D01*
G01X11889Y14226D01*
G01X11909Y14328D01*
G01X11909Y14390D01*
G01X11889Y14492D01*
G01X11847Y14553D01*
G01X11785Y14573D01*
G01X11744Y14573D01*
G01X10821Y12594D02*
G01X11046Y12594D01*
G01X10922Y12430D01*
G01X10985Y12430D01*
G01X11025Y12409D01*
G01X11046Y12390D01*
G01X11065Y12328D01*
G01X11065Y12286D01*
G01X11046Y12226D01*
G01X11005Y12184D01*
G01X10943Y12165D01*
G01X10881Y12165D01*
G01X10821Y12184D01*
G01X10800Y12205D01*
G01X10780Y12246D01*
G01X11242Y12594D02*
G01X11467Y12594D01*
G01X11344Y12430D01*
G01X11406Y12430D01*
G01X11447Y12409D01*
G01X11467Y12390D01*
G01X11488Y12328D01*
G01X11488Y12286D01*
G01X11467Y12226D01*
G01X11426Y12184D01*
G01X11364Y12165D01*
G01X11303Y12165D01*
G01X11242Y12184D01*
G01X11222Y12205D01*
G01X11201Y12246D01*
G01X11744Y12594D02*
G01X11684Y12573D01*
G01X11643Y12511D01*
G01X11622Y12409D01*
G01X11622Y12348D01*
G01X11643Y12246D01*
G01X11684Y12184D01*
G01X11744Y12165D01*
G01X11785Y12165D01*
G01X11847Y12184D01*
G01X11889Y12246D01*
G01X11909Y12348D01*
G01X11909Y12409D01*
G01X11889Y12511D01*
G01X11847Y12573D01*
G01X11785Y12594D01*
G01X11744Y12594D01*
G01X18327Y17409D02*
G01X18306Y17451D01*
G01X18246Y17511D01*
G01X18675Y17511D01*
G01X18246Y17769D02*
G01X18265Y17709D01*
G01X18327Y17667D01*
G01X18430Y17646D01*
G01X18490Y17646D01*
G01X18593Y17667D01*
G01X18655Y17709D01*
G01X18675Y17769D01*
G01X18675Y17811D01*
G01X18655Y17871D01*
G01X18593Y17913D01*
G01X18490Y17934D01*
G01X18430Y17934D01*
G01X18327Y17913D01*
G01X18265Y17871D01*
G01X18246Y17811D01*
G01X18246Y17769D01*
G01X18246Y18190D02*
G01X18265Y18130D01*
G01X18327Y18088D01*
G01X18430Y18069D01*
G01X18490Y18069D01*
G01X18593Y18088D01*
G01X18655Y18130D01*
G01X18675Y18190D01*
G01X18675Y18232D01*
G01X18655Y18294D01*
G01X18593Y18334D01*
G01X18490Y18355D01*
G01X18430Y18355D01*
G01X18327Y18334D01*
G01X18265Y18294D01*
G01X18246Y18232D01*
G01X18246Y18190D01*
G01X18246Y14480D02*
G01X18246Y14705D01*
G01X18410Y14582D01*
G01X18410Y14644D01*
G01X18430Y14684D01*
G01X18450Y14705D01*
G01X18511Y14726D01*
G01X18552Y14726D01*
G01X18614Y14705D01*
G01X18655Y14665D01*
G01X18675Y14603D01*
G01X18675Y14542D01*
G01X18655Y14480D01*
G01X18635Y14459D01*
G01X18593Y14440D01*
G01X18389Y15126D02*
G01X18450Y15107D01*
G01X18490Y15065D01*
G01X18511Y15005D01*
G01X18511Y14984D01*
G01X18490Y14923D01*
G01X18450Y14882D01*
G01X18389Y14861D01*
G01X18368Y14861D01*
G01X18306Y14882D01*
G01X18265Y14923D01*
G01X18246Y14984D01*
G01X18246Y15005D01*
G01X18265Y15065D01*
G01X18306Y15107D01*
G01X18389Y15126D01*
G01X18490Y15126D01*
G01X18593Y15107D01*
G01X18655Y15065D01*
G01X18675Y15005D01*
G01X18675Y14963D01*
G01X18655Y14901D01*
G01X18614Y14882D01*
G01X18246Y15384D02*
G01X18265Y15323D01*
G01X18327Y15282D01*
G01X18430Y15261D01*
G01X18490Y15261D01*
G01X18593Y15282D01*
G01X18655Y15323D01*
G01X18675Y15384D01*
G01X18675Y15426D01*
G01X18655Y15486D01*
G01X18593Y15528D01*
G01X18490Y15548D01*
G01X18430Y15548D01*
G01X18327Y15528D01*
G01X18265Y15486D01*
G01X18246Y15426D01*
G01X18246Y15384D01*
G01X20307Y16090D02*
G01X20286Y16130D01*
G01X20226Y16192D01*
G01X20655Y16192D01*
G01X20226Y16430D02*
G01X20246Y16367D01*
G01X20286Y16348D01*
G01X20327Y16348D01*
G01X20368Y16367D01*
G01X20389Y16409D01*
G01X20410Y16490D01*
G01X20430Y16552D01*
G01X20471Y16592D01*
G01X20511Y16613D01*
G01X20573Y16613D01*
G01X20614Y16592D01*
G01X20635Y16573D01*
G01X20655Y16511D01*
G01X20655Y16430D01*
G01X20635Y16367D01*
G01X20614Y16348D01*
G01X20573Y16326D01*
G01X20511Y16326D01*
G01X20471Y16348D01*
G01X20430Y16388D01*
G01X20410Y16450D01*
G01X20389Y16532D01*
G01X20368Y16573D01*
G01X20327Y16592D01*
G01X20286Y16592D01*
G01X20246Y16573D01*
G01X20226Y16511D01*
G01X20226Y16430D01*
G01X20226Y16871D02*
G01X20246Y16809D01*
G01X20307Y16769D01*
G01X20410Y16748D01*
G01X20471Y16748D01*
G01X20573Y16769D01*
G01X20635Y16809D01*
G01X20655Y16871D01*
G01X20655Y16911D01*
G01X20635Y16973D01*
G01X20573Y17015D01*
G01X20471Y17034D01*
G01X20410Y17034D01*
G01X20307Y17015D01*
G01X20246Y16973D01*
G01X20226Y16911D01*
G01X20226Y16871D01*
G01X20307Y9969D02*
G01X20286Y10011D01*
G01X20226Y10071D01*
G01X20655Y10071D01*
G01X20226Y10453D02*
G01X20226Y10248D01*
G01X20410Y10228D01*
G01X20389Y10248D01*
G01X20368Y10309D01*
G01X20368Y10371D01*
G01X20389Y10432D01*
G01X20430Y10473D01*
G01X20492Y10494D01*
G01X20532Y10494D01*
G01X20593Y10473D01*
G01X20635Y10432D01*
G01X20655Y10371D01*
G01X20655Y10309D01*
G01X20635Y10248D01*
G01X20614Y10228D01*
G01X20573Y10207D01*
G01X20226Y10751D02*
G01X20246Y10690D01*
G01X20307Y10648D01*
G01X20410Y10628D01*
G01X20471Y10628D01*
G01X20573Y10648D01*
G01X20635Y10690D01*
G01X20655Y10751D01*
G01X20655Y10792D01*
G01X20635Y10853D01*
G01X20573Y10894D01*
G01X20471Y10915D01*
G01X20410Y10915D01*
G01X20307Y10894D01*
G01X20246Y10853D01*
G01X20226Y10792D01*
G01X20226Y10751D01*
G01X10821Y6653D02*
G01X11046Y6653D01*
G01X10922Y6490D01*
G01X10985Y6490D01*
G01X11025Y6469D01*
G01X11046Y6450D01*
G01X11065Y6388D01*
G01X11065Y6346D01*
G01X11046Y6286D01*
G01X11005Y6244D01*
G01X10943Y6225D01*
G01X10881Y6225D01*
G01X10821Y6244D01*
G01X10800Y6265D01*
G01X10780Y6305D01*
G01X11242Y6653D02*
G01X11467Y6653D01*
G01X11344Y6490D01*
G01X11406Y6490D01*
G01X11447Y6469D01*
G01X11467Y6450D01*
G01X11488Y6388D01*
G01X11488Y6346D01*
G01X11467Y6286D01*
G01X11426Y6244D01*
G01X11364Y6225D01*
G01X11303Y6225D01*
G01X11242Y6244D01*
G01X11222Y6265D01*
G01X11201Y6305D01*
G01X11744Y6653D02*
G01X11684Y6634D01*
G01X11643Y6571D01*
G01X11622Y6469D01*
G01X11622Y6409D01*
G01X11643Y6305D01*
G01X11684Y6244D01*
G01X11744Y6225D01*
G01X11785Y6225D01*
G01X11847Y6244D01*
G01X11889Y6305D01*
G01X11909Y6409D01*
G01X11909Y6469D01*
G01X11889Y6571D01*
G01X11847Y6634D01*
G01X11785Y6653D01*
G01X11744Y6653D01*
G54D10*
G75*
G01X4236Y4480D02*
G02X3772Y4480I-232J-17D01*
G01*
G75*
G01X4236Y8480D02*
G02X3772Y8480I-232J-17D01*
G01*
G75*
G01X15894Y19000D02*
G02X15106Y19000I-394J0D01*
G01*
G75*
G01X15894Y10000D02*
G02X15106Y10000I-394J0D01*
G01*
M00*
M02*
