;Layer: Drill PTH
;EasyEDA v6.3.41, 2020-05-05T16:43:25+03:00
;77c085e715fd4d51943bb8e8cf624b98,92992e1295734089b6e5f9c93eeafd8a,10
;Gerber Generator version 0.2
M48
INCH,LZ,00.0000
;Holesize 1 = 0.040 INCH
T01C0.040
;Holesize 2 = 0.043 INCH
T02C0.043
%
G05
G90
T01
X+006000Y+012000
X+006000Y+007000
X+008800Y+017069
X+008800Y+018069
X+008800Y+019069
X+001500Y+013500
X+001500Y+012500
X+001500Y+011500
X+001500Y+010500
X+001500Y+009500
X+001500Y+008500
X+001500Y+007500
X+001500Y+006500
X+001500Y+005500
X+001500Y+004500
X+001500Y+003500
X+001500Y+002500
X+007500Y+002500
X+007500Y+003500
X+007500Y+004500
X+007500Y+005500
X+007500Y+006500
X+007500Y+007500
X+007500Y+008500
X+007500Y+009500
X+007500Y+010500
X+007500Y+011500
X+007500Y+012500
X+007500Y+013500
T02
X+024000Y+014500
X+024000Y+013500
X+024000Y+012500
X+024000Y+011500
X+024000Y+010500
X+024000Y+009500
X+024000Y+008500
X+024000Y+007500
M30
