G04 Layer: TopPasteMaskLayer*
G04 EasyEDA v6.3.41, 2020-05-05T16:43:25+03:00*
G04 77c085e715fd4d51943bb8e8cf624b98,92992e1295734089b6e5f9c93eeafd8a,10*
G04 Gerber Generator version 0.2*
G04 Scale: 100 percent, Rotated: No, Reflected: No *
G04 Dimensions in inches *
G04 leading zeros omitted , absolute positions ,2 integer and 4 decimal *
%FSLAX24Y24*%
%MOIN*%
G90*
G70D02*

%ADD12C,0.023622*%
%ADD14R,0.074803X0.047244*%
%ADD15R,0.047244X0.074803*%
%ADD16R,0.078740X0.055100*%

%LPD*%
G54D12*
G01X4897Y2750D02*
G01X5259Y2750D01*
G01X4897Y3250D02*
G01X5259Y3250D01*
G01X4897Y3750D02*
G01X5259Y3750D01*
G01X4897Y4250D02*
G01X5259Y4250D01*
G01X2740Y2750D02*
G01X3102Y2750D01*
G01X2740Y3250D02*
G01X3102Y3250D01*
G01X2740Y3750D02*
G01X3102Y3750D01*
G01X2740Y4250D02*
G01X3102Y4250D01*
G01X4897Y6750D02*
G01X5259Y6750D01*
G01X4897Y7250D02*
G01X5259Y7250D01*
G01X4897Y7750D02*
G01X5259Y7750D01*
G01X4897Y8250D02*
G01X5259Y8250D01*
G01X2740Y6750D02*
G01X3102Y6750D01*
G01X2740Y7250D02*
G01X3102Y7250D01*
G01X2740Y7750D02*
G01X3102Y7750D01*
G01X2740Y8250D02*
G01X3102Y8250D01*
G54D14*
G01X19500Y12629D03*
G01X19500Y11369D03*
G01X19500Y9629D03*
G01X19500Y8369D03*
G01X21500Y3869D03*
G01X21500Y5129D03*
G01X21500Y6869D03*
G01X21500Y8129D03*
G01X19500Y6629D03*
G01X19500Y5369D03*
G54D15*
G01X2870Y11000D03*
G01X4129Y11000D03*
G01X12129Y9500D03*
G01X10870Y9500D03*
G01X12129Y7500D03*
G01X10870Y7500D03*
G54D14*
G01X23500Y17369D03*
G01X23500Y18629D03*
G54D15*
G01X12129Y3500D03*
G01X10870Y3500D03*
G01X12129Y17500D03*
G01X10870Y17500D03*
G01X12129Y15500D03*
G01X10870Y15500D03*
G01X12129Y13500D03*
G01X10870Y13500D03*
G01X12129Y11500D03*
G01X10870Y11500D03*
G54D14*
G01X19500Y18629D03*
G01X19500Y17369D03*
G01X19500Y15629D03*
G01X19500Y14369D03*
G01X21500Y17129D03*
G01X21500Y15869D03*
G01X21500Y9869D03*
G01X21500Y11129D03*
G54D15*
G01X12129Y5500D03*
G01X10870Y5500D03*
G54D16*
G01X13610Y18500D03*
G01X13610Y17500D03*
G01X13610Y16500D03*
G01X13610Y15500D03*
G01X13610Y14500D03*
G01X13610Y13500D03*
G01X13610Y12500D03*
G01X13610Y11500D03*
G01X17389Y11500D03*
G01X17389Y12500D03*
G01X17389Y13500D03*
G01X17389Y14500D03*
G01X17389Y15500D03*
G01X17389Y16500D03*
G01X17389Y17500D03*
G01X17389Y18500D03*
G01X13610Y9500D03*
G01X13610Y8500D03*
G01X13610Y7500D03*
G01X13610Y6500D03*
G01X13610Y5500D03*
G01X13610Y4500D03*
G01X13610Y3500D03*
G01X13610Y2500D03*
G01X17389Y2500D03*
G01X17389Y3500D03*
G01X17389Y4500D03*
G01X17389Y5500D03*
G01X17389Y6500D03*
G01X17389Y7500D03*
G01X17389Y8500D03*
G01X17389Y9500D03*
M00*
M02*
