G04 Layer: TopSolderMaskLayer*
G04 EasyEDA v6.3.41, 2020-05-05T16:43:25+03:00*
G04 77c085e715fd4d51943bb8e8cf624b98,92992e1295734089b6e5f9c93eeafd8a,10*
G04 Gerber Generator version 0.2*
G04 Scale: 100 percent, Rotated: No, Reflected: No *
G04 Dimensions in inches *
G04 leading zeros omitted , absolute positions ,2 integer and 4 decimal *
%FSLAX24Y24*%
%MOIN*%
G90*
G70D02*

%ADD20C,0.031622*%
%ADD21C,0.068000*%
%ADD22C,0.067700*%

%LPD*%
G54D20*
G01X4897Y2750D02*
G01X5259Y2750D01*
G01X4897Y3250D02*
G01X5259Y3250D01*
G01X4897Y3750D02*
G01X5259Y3750D01*
G01X4897Y4250D02*
G01X5259Y4250D01*
G01X2740Y2750D02*
G01X3102Y2750D01*
G01X2740Y3250D02*
G01X3102Y3250D01*
G01X2740Y3750D02*
G01X3102Y3750D01*
G01X2740Y4250D02*
G01X3102Y4250D01*
G01X4897Y6750D02*
G01X5259Y6750D01*
G01X4897Y7250D02*
G01X5259Y7250D01*
G01X4897Y7750D02*
G01X5259Y7750D01*
G01X4897Y8250D02*
G01X5259Y8250D01*
G01X2740Y6750D02*
G01X3102Y6750D01*
G01X2740Y7250D02*
G01X3102Y7250D01*
G01X2740Y7750D02*
G01X3102Y7750D01*
G01X2740Y8250D02*
G01X3102Y8250D01*
G54D21*
G01X6000Y12000D03*
G01X6000Y7000D03*
G01X24000Y14500D03*
G01X24000Y13500D03*
G01X24000Y12500D03*
G01X24000Y11500D03*
G01X24000Y10500D03*
G01X24000Y9500D03*
G01X24000Y8500D03*
G01X24000Y7500D03*
G54D22*
G01X8800Y17069D03*
G01X8800Y18069D03*
G01X8800Y19069D03*
G54D21*
G01X1500Y13500D03*
G01X1500Y12500D03*
G01X1500Y11500D03*
G01X1500Y10500D03*
G01X1500Y9500D03*
G01X1500Y8500D03*
G01X1500Y7500D03*
G01X1500Y6500D03*
G01X1500Y5500D03*
G01X1500Y4500D03*
G01X1500Y3500D03*
G01X1500Y2500D03*
G01X7500Y2500D03*
G01X7500Y3500D03*
G01X7500Y4500D03*
G01X7500Y5500D03*
G01X7500Y6500D03*
G01X7500Y7500D03*
G01X7500Y8500D03*
G01X7500Y9500D03*
G01X7500Y10500D03*
G01X7500Y11500D03*
G01X7500Y12500D03*
G01X7500Y13500D03*
G36*
G01X19085Y12353D02*
G01X19085Y12905D01*
G01X19914Y12905D01*
G01X19914Y12353D01*
G01X19085Y12353D01*
G37*
G36*
G01X19085Y11094D02*
G01X19085Y11646D01*
G01X19914Y11646D01*
G01X19914Y11094D01*
G01X19085Y11094D01*
G37*
G36*
G01X19085Y9353D02*
G01X19085Y9905D01*
G01X19914Y9905D01*
G01X19914Y9353D01*
G01X19085Y9353D01*
G37*
G36*
G01X19085Y8094D02*
G01X19085Y8646D01*
G01X19914Y8646D01*
G01X19914Y8094D01*
G01X19085Y8094D01*
G37*
G36*
G01X21085Y3594D02*
G01X21085Y4146D01*
G01X21914Y4146D01*
G01X21914Y3594D01*
G01X21085Y3594D01*
G37*
G36*
G01X21085Y4853D02*
G01X21085Y5405D01*
G01X21914Y5405D01*
G01X21914Y4853D01*
G01X21085Y4853D01*
G37*
G36*
G01X21085Y6594D02*
G01X21085Y7146D01*
G01X21914Y7146D01*
G01X21914Y6594D01*
G01X21085Y6594D01*
G37*
G36*
G01X21085Y7853D02*
G01X21085Y8405D01*
G01X21914Y8405D01*
G01X21914Y7853D01*
G01X21085Y7853D01*
G37*
G36*
G01X19085Y6353D02*
G01X19085Y6905D01*
G01X19914Y6905D01*
G01X19914Y6353D01*
G01X19085Y6353D01*
G37*
G36*
G01X19085Y5094D02*
G01X19085Y5646D01*
G01X19914Y5646D01*
G01X19914Y5094D01*
G01X19085Y5094D01*
G37*
G36*
G01X2593Y10586D02*
G01X2593Y11413D01*
G01X3146Y11413D01*
G01X3146Y10586D01*
G01X2593Y10586D01*
G37*
G36*
G01X3853Y10586D02*
G01X3853Y11413D01*
G01X4406Y11413D01*
G01X4406Y10586D01*
G01X3853Y10586D01*
G37*
G36*
G01X11853Y9086D02*
G01X11853Y9913D01*
G01X12406Y9913D01*
G01X12406Y9086D01*
G01X11853Y9086D01*
G37*
G36*
G01X10593Y9086D02*
G01X10593Y9913D01*
G01X11146Y9913D01*
G01X11146Y9086D01*
G01X10593Y9086D01*
G37*
G36*
G01X11853Y7086D02*
G01X11853Y7913D01*
G01X12406Y7913D01*
G01X12406Y7086D01*
G01X11853Y7086D01*
G37*
G36*
G01X10593Y7086D02*
G01X10593Y7913D01*
G01X11146Y7913D01*
G01X11146Y7086D01*
G01X10593Y7086D01*
G37*
G36*
G01X23085Y17094D02*
G01X23085Y17646D01*
G01X23914Y17646D01*
G01X23914Y17094D01*
G01X23085Y17094D01*
G37*
G36*
G01X23085Y18353D02*
G01X23085Y18905D01*
G01X23914Y18905D01*
G01X23914Y18353D01*
G01X23085Y18353D01*
G37*
G36*
G01X11853Y3086D02*
G01X11853Y3913D01*
G01X12406Y3913D01*
G01X12406Y3086D01*
G01X11853Y3086D01*
G37*
G36*
G01X10593Y3086D02*
G01X10593Y3913D01*
G01X11146Y3913D01*
G01X11146Y3086D01*
G01X10593Y3086D01*
G37*
G36*
G01X11853Y17086D02*
G01X11853Y17913D01*
G01X12406Y17913D01*
G01X12406Y17086D01*
G01X11853Y17086D01*
G37*
G36*
G01X10593Y17086D02*
G01X10593Y17913D01*
G01X11146Y17913D01*
G01X11146Y17086D01*
G01X10593Y17086D01*
G37*
G36*
G01X11853Y15086D02*
G01X11853Y15913D01*
G01X12406Y15913D01*
G01X12406Y15086D01*
G01X11853Y15086D01*
G37*
G36*
G01X10593Y15086D02*
G01X10593Y15913D01*
G01X11146Y15913D01*
G01X11146Y15086D01*
G01X10593Y15086D01*
G37*
G36*
G01X11853Y13086D02*
G01X11853Y13913D01*
G01X12406Y13913D01*
G01X12406Y13086D01*
G01X11853Y13086D01*
G37*
G36*
G01X10593Y13086D02*
G01X10593Y13913D01*
G01X11146Y13913D01*
G01X11146Y13086D01*
G01X10593Y13086D01*
G37*
G36*
G01X11853Y11086D02*
G01X11853Y11913D01*
G01X12406Y11913D01*
G01X12406Y11086D01*
G01X11853Y11086D01*
G37*
G36*
G01X10593Y11086D02*
G01X10593Y11913D01*
G01X11146Y11913D01*
G01X11146Y11086D01*
G01X10593Y11086D01*
G37*
G36*
G01X19085Y18353D02*
G01X19085Y18905D01*
G01X19914Y18905D01*
G01X19914Y18353D01*
G01X19085Y18353D01*
G37*
G36*
G01X19085Y17094D02*
G01X19085Y17646D01*
G01X19914Y17646D01*
G01X19914Y17094D01*
G01X19085Y17094D01*
G37*
G36*
G01X19085Y15353D02*
G01X19085Y15905D01*
G01X19914Y15905D01*
G01X19914Y15353D01*
G01X19085Y15353D01*
G37*
G36*
G01X19085Y14094D02*
G01X19085Y14646D01*
G01X19914Y14646D01*
G01X19914Y14094D01*
G01X19085Y14094D01*
G37*
G36*
G01X21085Y16853D02*
G01X21085Y17405D01*
G01X21914Y17405D01*
G01X21914Y16853D01*
G01X21085Y16853D01*
G37*
G36*
G01X21085Y15594D02*
G01X21085Y16146D01*
G01X21914Y16146D01*
G01X21914Y15594D01*
G01X21085Y15594D01*
G37*
G36*
G01X21085Y9594D02*
G01X21085Y10146D01*
G01X21914Y10146D01*
G01X21914Y9594D01*
G01X21085Y9594D01*
G37*
G36*
G01X21085Y10853D02*
G01X21085Y11405D01*
G01X21914Y11405D01*
G01X21914Y10853D01*
G01X21085Y10853D01*
G37*
G36*
G01X11853Y5086D02*
G01X11853Y5913D01*
G01X12406Y5913D01*
G01X12406Y5086D01*
G01X11853Y5086D01*
G37*
G36*
G01X10593Y5086D02*
G01X10593Y5913D01*
G01X11146Y5913D01*
G01X11146Y5086D01*
G01X10593Y5086D01*
G37*
G36*
G01X13176Y18184D02*
G01X13176Y18815D01*
G01X14043Y18815D01*
G01X14043Y18184D01*
G01X13176Y18184D01*
G37*
G36*
G01X13176Y17184D02*
G01X13176Y17815D01*
G01X14043Y17815D01*
G01X14043Y17184D01*
G01X13176Y17184D01*
G37*
G36*
G01X13176Y16184D02*
G01X13176Y16815D01*
G01X14043Y16815D01*
G01X14043Y16184D01*
G01X13176Y16184D01*
G37*
G36*
G01X13176Y15184D02*
G01X13176Y15815D01*
G01X14043Y15815D01*
G01X14043Y15184D01*
G01X13176Y15184D01*
G37*
G36*
G01X13176Y14184D02*
G01X13176Y14815D01*
G01X14043Y14815D01*
G01X14043Y14184D01*
G01X13176Y14184D01*
G37*
G36*
G01X13176Y13184D02*
G01X13176Y13815D01*
G01X14043Y13815D01*
G01X14043Y13184D01*
G01X13176Y13184D01*
G37*
G36*
G01X13176Y12184D02*
G01X13176Y12815D01*
G01X14043Y12815D01*
G01X14043Y12184D01*
G01X13176Y12184D01*
G37*
G36*
G01X13176Y11184D02*
G01X13176Y11815D01*
G01X14043Y11815D01*
G01X14043Y11184D01*
G01X13176Y11184D01*
G37*
G36*
G01X16956Y11184D02*
G01X16956Y11815D01*
G01X17823Y11815D01*
G01X17823Y11184D01*
G01X16956Y11184D01*
G37*
G36*
G01X16956Y12184D02*
G01X16956Y12815D01*
G01X17823Y12815D01*
G01X17823Y12184D01*
G01X16956Y12184D01*
G37*
G36*
G01X16956Y13184D02*
G01X16956Y13815D01*
G01X17823Y13815D01*
G01X17823Y13184D01*
G01X16956Y13184D01*
G37*
G36*
G01X16956Y14184D02*
G01X16956Y14815D01*
G01X17823Y14815D01*
G01X17823Y14184D01*
G01X16956Y14184D01*
G37*
G36*
G01X16956Y15184D02*
G01X16956Y15815D01*
G01X17823Y15815D01*
G01X17823Y15184D01*
G01X16956Y15184D01*
G37*
G36*
G01X16956Y16184D02*
G01X16956Y16815D01*
G01X17823Y16815D01*
G01X17823Y16184D01*
G01X16956Y16184D01*
G37*
G36*
G01X16956Y17184D02*
G01X16956Y17815D01*
G01X17823Y17815D01*
G01X17823Y17184D01*
G01X16956Y17184D01*
G37*
G36*
G01X16956Y18184D02*
G01X16956Y18815D01*
G01X17823Y18815D01*
G01X17823Y18184D01*
G01X16956Y18184D01*
G37*
G36*
G01X13176Y9184D02*
G01X13176Y9815D01*
G01X14043Y9815D01*
G01X14043Y9184D01*
G01X13176Y9184D01*
G37*
G36*
G01X13176Y8184D02*
G01X13176Y8815D01*
G01X14043Y8815D01*
G01X14043Y8184D01*
G01X13176Y8184D01*
G37*
G36*
G01X13176Y7184D02*
G01X13176Y7815D01*
G01X14043Y7815D01*
G01X14043Y7184D01*
G01X13176Y7184D01*
G37*
G36*
G01X13176Y6184D02*
G01X13176Y6815D01*
G01X14043Y6815D01*
G01X14043Y6184D01*
G01X13176Y6184D01*
G37*
G36*
G01X13176Y5184D02*
G01X13176Y5815D01*
G01X14043Y5815D01*
G01X14043Y5184D01*
G01X13176Y5184D01*
G37*
G36*
G01X13176Y4184D02*
G01X13176Y4815D01*
G01X14043Y4815D01*
G01X14043Y4184D01*
G01X13176Y4184D01*
G37*
G36*
G01X13176Y3184D02*
G01X13176Y3815D01*
G01X14043Y3815D01*
G01X14043Y3184D01*
G01X13176Y3184D01*
G37*
G36*
G01X13176Y2184D02*
G01X13176Y2815D01*
G01X14043Y2815D01*
G01X14043Y2184D01*
G01X13176Y2184D01*
G37*
G36*
G01X16956Y2184D02*
G01X16956Y2815D01*
G01X17823Y2815D01*
G01X17823Y2184D01*
G01X16956Y2184D01*
G37*
G36*
G01X16956Y3184D02*
G01X16956Y3815D01*
G01X17823Y3815D01*
G01X17823Y3184D01*
G01X16956Y3184D01*
G37*
G36*
G01X16956Y4184D02*
G01X16956Y4815D01*
G01X17823Y4815D01*
G01X17823Y4184D01*
G01X16956Y4184D01*
G37*
G36*
G01X16956Y5184D02*
G01X16956Y5815D01*
G01X17823Y5815D01*
G01X17823Y5184D01*
G01X16956Y5184D01*
G37*
G36*
G01X16956Y6184D02*
G01X16956Y6815D01*
G01X17823Y6815D01*
G01X17823Y6184D01*
G01X16956Y6184D01*
G37*
G36*
G01X16956Y7184D02*
G01X16956Y7815D01*
G01X17823Y7815D01*
G01X17823Y7184D01*
G01X16956Y7184D01*
G37*
G36*
G01X16956Y8184D02*
G01X16956Y8815D01*
G01X17823Y8815D01*
G01X17823Y8184D01*
G01X16956Y8184D01*
G37*
G36*
G01X16956Y9184D02*
G01X16956Y9815D01*
G01X17823Y9815D01*
G01X17823Y9184D01*
G01X16956Y9184D01*
G37*
M00*
M02*
