G04 Layer: TopLayer*
G04 EasyEDA v6.3.41, 2020-05-05T16:43:25+03:00*
G04 77c085e715fd4d51943bb8e8cf624b98,92992e1295734089b6e5f9c93eeafd8a,10*
G04 Gerber Generator version 0.2*
G04 Scale: 100 percent, Rotated: No, Reflected: No *
G04 Dimensions in inches *
G04 leading zeros omitted , absolute positions ,2 integer and 4 decimal *
%FSLAX24Y24*%
%MOIN*%
G90*
G70D02*

%ADD11C,0.020000*%
%ADD12C,0.023622*%
%ADD13C,0.015000*%
%ADD14R,0.074803X0.047244*%
%ADD15R,0.047244X0.074803*%
%ADD16R,0.078740X0.055100*%
%ADD17C,0.060000*%
%ADD18C,0.059700*%

%LPD*%
G54D11*
G01X7500Y10500D02*
G01X6139Y10500D01*
G01X5169Y11469D01*
G01X5169Y13169D01*
G01X8800Y16800D01*
G01X8800Y17069D01*
G01X7500Y12500D02*
G01X6500Y12500D01*
G01X6500Y13500D01*
G01X9500Y16500D01*
G01X9500Y18000D01*
G01X17389Y18500D02*
G01X19000Y18500D01*
G01X19129Y18629D01*
G01X19500Y18629D01*
G01X19500Y18629D02*
G01X23500Y18629D01*
G01X17389Y13500D02*
G01X18000Y13500D01*
G01X18869Y14369D01*
G01X19500Y14369D01*
G01X19500Y14369D02*
G01X19760Y14109D01*
G01X22389Y14109D01*
G01X23000Y13500D01*
G01X24000Y13500D01*
G01X10869Y17500D02*
G01X10000Y16500D01*
G01X10000Y15500D01*
G01X8500Y14000D01*
G01X8500Y10500D01*
G01X7500Y9500D01*
G01X24000Y12500D02*
G01X24639Y13139D01*
G01X24639Y18860D01*
G01X23779Y19719D01*
G01X10220Y19719D01*
G01X9570Y19069D01*
G01X8800Y19069D01*
G01X8800Y18069D02*
G01X9569Y18069D01*
G01X10560Y19060D01*
G01X14500Y19060D01*
G01X14500Y17500D01*
G01X21500Y9870D02*
G01X21870Y9870D01*
G01X23500Y11500D01*
G01X24000Y11500D01*
G01X19500Y12629D02*
G01X19870Y12629D01*
G01X21369Y11130D01*
G01X21500Y11130D01*
G01X17389Y4500D02*
G01X20500Y4500D01*
G01X21130Y5130D01*
G01X21500Y5130D01*
G01X2869Y11000D02*
G01X2500Y10500D01*
G01X2500Y8250D01*
G01X2921Y8250D01*
G01X2200Y5200D02*
G01X3519Y5200D01*
G01X2921Y7750D02*
G01X2250Y7750D01*
G01X2200Y5200D01*
G01X1500Y4500D01*
G01X5078Y3750D02*
G01X6819Y3746D01*
G01X5078Y7750D02*
G01X6250Y7750D01*
G01X6819Y7180D01*
G01X6819Y2180D01*
G01X7100Y1900D01*
G01X15900Y1900D01*
G01X16500Y2500D01*
G01X16500Y3500D01*
G01X5078Y3250D02*
G01X5830Y3219D01*
G01X6000Y3000D01*
G01X6000Y2059D01*
G01X6819Y1240D01*
G01X21669Y1240D01*
G01X24000Y3569D01*
G01X24000Y7500D01*
G01X5078Y7250D02*
G01X4500Y7250D01*
G01X4500Y5500D01*
G01X4000Y5000D01*
G01X4000Y2740D01*
G01X6160Y580D01*
G01X22000Y580D01*
G01X24639Y3219D01*
G01X24639Y7859D01*
G01X24000Y8500D01*
G01X6000Y7000D02*
G01X5750Y6750D01*
G01X5500Y6750D01*
G01X6000Y12000D02*
G01X6500Y12500D01*
G01X24000Y10500D02*
G01X23500Y10500D01*
G01X22660Y9660D01*
G01X22660Y4160D01*
G01X22370Y3870D01*
G01X21500Y3870D01*
G01X17389Y2500D02*
G01X22000Y2500D01*
G01X23319Y3819D01*
G01X23319Y9319D01*
G01X23500Y9500D01*
G01X24000Y9500D01*
G01X17389Y12500D02*
G01X18000Y12500D01*
G01X19000Y13500D01*
G01X22000Y13500D01*
G01X23000Y12500D01*
G01X24000Y12500D01*
G01X12130Y17500D02*
G01X12130Y17630D01*
G01X13000Y18500D01*
G01X13610Y18500D01*
G01X12130Y15500D02*
G01X12130Y15630D01*
G01X13000Y16500D01*
G01X13610Y16500D01*
G01X12130Y13500D02*
G01X12130Y13630D01*
G01X13000Y14500D01*
G01X13610Y14500D01*
G01X12130Y11500D02*
G01X12130Y11630D01*
G01X13000Y12500D01*
G01X13610Y12500D01*
G01X10869Y9500D02*
G01X10500Y9000D01*
G01X10500Y8500D01*
G01X7500Y5500D01*
G01X10869Y3500D02*
G01X10000Y2500D01*
G01X7500Y2500D01*
G01X16500Y17500D02*
G01X16500Y18500D01*
G01X15939Y19059D01*
G01X14500Y19059D01*
G01X19500Y6629D02*
G01X21000Y8130D01*
G01X21500Y8130D01*
G01X5078Y2750D02*
G01X4750Y2750D01*
G01X4500Y3000D01*
G01X4500Y4859D01*
G01X5500Y5859D01*
G01X5500Y6750D01*
G01X5078Y6750D01*
G01X4130Y11000D02*
G01X4000Y11000D01*
G01X4000Y5680D01*
G01X3519Y5200D01*
G01X3519Y3880D01*
G01X3389Y3750D01*
G01X2921Y3750D01*
G01X2921Y6750D02*
G01X3250Y6750D01*
G01X3500Y7000D01*
G01X3500Y12000D01*
G01X2000Y13500D01*
G01X1500Y13500D01*
G01X1500Y3500D02*
G01X1869Y3550D01*
G01X2530Y4209D01*
G01X2921Y4250D01*
G01X19500Y15630D02*
G01X19630Y15759D01*
G01X21500Y15759D01*
G01X21500Y15869D01*
G01X19500Y17369D02*
G01X21130Y17369D01*
G01X21369Y17130D01*
G01X21500Y17130D01*
G01X13610Y17500D02*
G01X14500Y17500D01*
G01X14500Y3005D01*
G01X14002Y2501D01*
G01X13610Y2500D01*
G01X17389Y12500D02*
G01X16997Y12498D01*
G01X16500Y11994D01*
G01X16500Y3500D01*
G01X17389Y3500D01*
G01X17389Y17500D02*
G01X16500Y17500D01*
G01X16500Y14000D01*
G01X17000Y13500D01*
G01X17389Y13500D01*
G01X1500Y12500D02*
G01X2870Y11129D01*
G01X2870Y11000D01*
G01X1500Y2500D02*
G01X2500Y2500D01*
G01X2750Y2750D01*
G01X2921Y2750D01*
G01X21500Y6870D02*
G01X21500Y5130D01*
G01X17389Y5500D02*
G01X19000Y5500D01*
G01X19129Y5370D01*
G01X19500Y5370D01*
G01X17389Y6500D02*
G01X19000Y6500D01*
G01X19129Y6629D01*
G01X19500Y6629D01*
G01X17389Y7500D02*
G01X18500Y7500D01*
G01X19370Y8370D01*
G01X19500Y8370D01*
G01X17389Y8500D02*
G01X18000Y8500D01*
G01X19129Y9629D01*
G01X19500Y9629D01*
G01X24000Y14500D02*
G01X24000Y16870D01*
G01X23500Y17370D01*
G01X19500Y9629D02*
G01X19500Y11370D01*
G01X17389Y16500D02*
G01X18000Y16500D01*
G01X18869Y17369D01*
G01X19500Y17369D01*
G01X17389Y11500D02*
G01X18000Y11500D01*
G01X19129Y12629D01*
G01X19500Y12629D01*
G01X17389Y14500D02*
G01X18000Y14500D01*
G01X19129Y15629D01*
G01X19500Y15629D01*
G01X10869Y7500D02*
G01X7869Y4500D01*
G01X7500Y4500D01*
G01X10869Y5500D02*
G01X8869Y3500D01*
G01X7500Y3500D01*
G01X10869Y11500D02*
G01X10000Y10630D01*
G01X10000Y9000D01*
G01X7500Y6500D01*
G01X10869Y13500D02*
G01X9500Y12130D01*
G01X9500Y9500D01*
G01X7500Y7500D01*
G01X10869Y15500D02*
G01X9000Y13630D01*
G01X9000Y10000D01*
G01X7500Y8500D01*
G01X12129Y9500D02*
G01X13610Y9500D01*
G01X12129Y7500D02*
G01X13610Y7500D01*
G01X12129Y5500D02*
G01X13610Y5500D01*
G01X12129Y3500D02*
G01X13610Y3500D01*
G01X17389Y9500D02*
G01X16500Y9500D01*
G01X17389Y7500D02*
G01X16500Y7500D01*
G01X17389Y5500D02*
G01X16500Y5500D01*
G01X17389Y15500D02*
G01X16500Y15500D01*
G01X13610Y4500D02*
G01X14500Y4500D01*
G01X13610Y6500D02*
G01X14500Y6500D01*
G01X13610Y8500D02*
G01X14500Y8500D01*
G01X13610Y11500D02*
G01X14500Y11500D01*
G01X13610Y13500D02*
G01X14500Y13500D01*
G01X13610Y15500D02*
G01X14500Y15500D01*
G54D12*
G01X4897Y2750D02*
G01X5259Y2750D01*
G01X4897Y3250D02*
G01X5259Y3250D01*
G01X4897Y3750D02*
G01X5259Y3750D01*
G01X4897Y4250D02*
G01X5259Y4250D01*
G01X2740Y2750D02*
G01X3102Y2750D01*
G01X2740Y3250D02*
G01X3102Y3250D01*
G01X2740Y3750D02*
G01X3102Y3750D01*
G01X2740Y4250D02*
G01X3102Y4250D01*
G01X4897Y6750D02*
G01X5259Y6750D01*
G01X4897Y7250D02*
G01X5259Y7250D01*
G01X4897Y7750D02*
G01X5259Y7750D01*
G01X4897Y8250D02*
G01X5259Y8250D01*
G01X2740Y6750D02*
G01X3102Y6750D01*
G01X2740Y7250D02*
G01X3102Y7250D01*
G01X2740Y7750D02*
G01X3102Y7750D01*
G01X2740Y8250D02*
G01X3102Y8250D01*
G54D13*
G01X1000Y19307D02*
G01X1000Y18544D01*
G01X1000Y19307D02*
G01X1290Y18544D01*
G01X1581Y19307D02*
G01X1290Y18544D01*
G01X1581Y19307D02*
G01X1581Y18544D01*
G01X2039Y19307D02*
G01X1967Y19271D01*
G01X1894Y19198D01*
G01X1857Y19125D01*
G01X1822Y19015D01*
G01X1822Y18834D01*
G01X1857Y18725D01*
G01X1894Y18653D01*
G01X1967Y18580D01*
G01X2039Y18544D01*
G01X2185Y18544D01*
G01X2257Y18580D01*
G01X2331Y18653D01*
G01X2367Y18725D01*
G01X2403Y18834D01*
G01X2403Y19015D01*
G01X2367Y19125D01*
G01X2331Y19198D01*
G01X2257Y19271D01*
G01X2185Y19307D01*
G01X2039Y19307D01*
G01X2148Y18688D02*
G01X2367Y18471D01*
G01X2643Y19307D02*
G01X2643Y18544D01*
G01X2643Y19307D02*
G01X2971Y19307D01*
G01X3080Y19271D01*
G01X3115Y19234D01*
G01X3152Y19161D01*
G01X3152Y19088D01*
G01X3115Y19015D01*
G01X3080Y18980D01*
G01X2971Y18944D01*
G01X2643Y18944D02*
G01X2971Y18944D01*
G01X3080Y18907D01*
G01X3115Y18871D01*
G01X3152Y18798D01*
G01X3152Y18688D01*
G01X3115Y18615D01*
G01X3080Y18580D01*
G01X2971Y18544D01*
G01X2643Y18544D01*
G01X4061Y19307D02*
G01X4061Y18688D01*
G01X4097Y18580D01*
G01X4171Y18544D01*
G01X4243Y18544D01*
G01X3952Y19053D02*
G01X4206Y19053D01*
G01X4664Y19053D02*
G01X4593Y19015D01*
G01X4519Y18944D01*
G01X4484Y18834D01*
G01X4484Y18761D01*
G01X4519Y18653D01*
G01X4593Y18580D01*
G01X4664Y18544D01*
G01X4775Y18544D01*
G01X4847Y18580D01*
G01X4919Y18653D01*
G01X4956Y18761D01*
G01X4956Y18834D01*
G01X4919Y18944D01*
G01X4847Y19015D01*
G01X4775Y19053D01*
G01X4664Y19053D01*
G01X5756Y19307D02*
G01X5756Y18544D01*
G01X5756Y19307D02*
G01X6084Y19307D01*
G01X6193Y19271D01*
G01X6228Y19234D01*
G01X6264Y19161D01*
G01X6264Y19053D01*
G01X6228Y18980D01*
G01X6193Y18944D01*
G01X6084Y18907D01*
G01X5756Y18907D01*
G01X6723Y19307D02*
G01X6651Y19271D01*
G01X6577Y19198D01*
G01X6542Y19125D01*
G01X6505Y19015D01*
G01X6505Y18834D01*
G01X6542Y18725D01*
G01X6577Y18653D01*
G01X6651Y18580D01*
G01X6723Y18544D01*
G01X6868Y18544D01*
G01X6942Y18580D01*
G01X7014Y18653D01*
G01X7051Y18725D01*
G01X7086Y18834D01*
G01X7086Y19015D01*
G01X7051Y19125D01*
G01X7014Y19198D01*
G01X6942Y19271D01*
G01X6868Y19307D01*
G01X6723Y19307D01*
G01X6832Y18688D02*
G01X7051Y18471D01*
G01X1900Y17444D02*
G01X1864Y17515D01*
G01X1755Y17553D01*
G01X1644Y17553D01*
G01X1535Y17515D01*
G01X1500Y17444D01*
G01X1535Y17371D01*
G01X1609Y17334D01*
G01X1790Y17298D01*
G01X1864Y17261D01*
G01X1900Y17188D01*
G01X1900Y17153D01*
G01X1864Y17080D01*
G01X1755Y17044D01*
G01X1644Y17044D01*
G01X1535Y17080D01*
G01X1500Y17153D01*
G01X2248Y17807D02*
G01X2248Y17188D01*
G01X2285Y17080D01*
G01X2357Y17044D01*
G01X2431Y17044D01*
G01X2139Y17553D02*
G01X2394Y17553D01*
G01X2706Y17225D02*
G01X2671Y17188D01*
G01X2706Y17153D01*
G01X2743Y17188D01*
G01X2706Y17225D01*
G01X3543Y17553D02*
G01X3689Y17044D01*
G01X3835Y17553D02*
G01X3689Y17044D01*
G01X3835Y17553D02*
G01X3980Y17044D01*
G01X4125Y17553D02*
G01X3980Y17044D01*
G01X4364Y17807D02*
G01X4364Y17044D01*
G01X4364Y17407D02*
G01X4475Y17515D01*
G01X4547Y17553D01*
G01X4656Y17553D01*
G01X4728Y17515D01*
G01X4764Y17407D01*
G01X4764Y17044D01*
G01X5005Y17334D02*
G01X5442Y17334D01*
G01X5442Y17407D01*
G01X5405Y17480D01*
G01X5368Y17515D01*
G01X5296Y17553D01*
G01X5186Y17553D01*
G01X5114Y17515D01*
G01X5042Y17444D01*
G01X5005Y17334D01*
G01X5005Y17261D01*
G01X5042Y17153D01*
G01X5114Y17080D01*
G01X5186Y17044D01*
G01X5296Y17044D01*
G01X5368Y17080D01*
G01X5442Y17153D01*
G01X5681Y17334D02*
G01X6118Y17334D01*
G01X6118Y17407D01*
G01X6081Y17480D01*
G01X6044Y17515D01*
G01X5972Y17553D01*
G01X5864Y17553D01*
G01X5790Y17515D01*
G01X5718Y17444D01*
G01X5681Y17334D01*
G01X5681Y17261D01*
G01X5718Y17153D01*
G01X5790Y17080D01*
G01X5864Y17044D01*
G01X5972Y17044D01*
G01X6044Y17080D01*
G01X6118Y17153D01*
G01X6357Y17807D02*
G01X6357Y17044D01*
G01X2435Y16053D02*
G01X2435Y15544D01*
G01X2435Y15944D02*
G01X2364Y16015D01*
G01X2290Y16053D01*
G01X2181Y16053D01*
G01X2109Y16015D01*
G01X2035Y15944D01*
G01X2000Y15834D01*
G01X2000Y15761D01*
G01X2035Y15653D01*
G01X2109Y15580D01*
G01X2181Y15544D01*
G01X2290Y15544D01*
G01X2364Y15580D01*
G01X2435Y15653D01*
G01X3113Y16307D02*
G01X3113Y15544D01*
G01X3113Y15944D02*
G01X3039Y16015D01*
G01X2967Y16053D01*
G01X2857Y16053D01*
G01X2785Y16015D01*
G01X2713Y15944D01*
G01X2676Y15834D01*
G01X2676Y15761D01*
G01X2713Y15653D01*
G01X2785Y15580D01*
G01X2857Y15544D01*
G01X2967Y15544D01*
G01X3039Y15580D01*
G01X3113Y15653D01*
G01X3789Y16053D02*
G01X3789Y15544D01*
G01X3789Y15944D02*
G01X3715Y16015D01*
G01X3643Y16053D01*
G01X3535Y16053D01*
G01X3461Y16015D01*
G01X3389Y15944D01*
G01X3352Y15834D01*
G01X3352Y15761D01*
G01X3389Y15653D01*
G01X3461Y15580D01*
G01X3535Y15544D01*
G01X3643Y15544D01*
G01X3715Y15580D01*
G01X3789Y15653D01*
G01X4028Y16053D02*
G01X4028Y15288D01*
G01X4028Y15944D02*
G01X4102Y16015D01*
G01X4175Y16053D01*
G01X4284Y16053D01*
G01X4356Y16015D01*
G01X4428Y15944D01*
G01X4464Y15834D01*
G01X4464Y15761D01*
G01X4428Y15653D01*
G01X4356Y15580D01*
G01X4284Y15544D01*
G01X4175Y15544D01*
G01X4102Y15580D01*
G01X4028Y15653D01*
G01X4814Y16307D02*
G01X4814Y15688D01*
G01X4851Y15580D01*
G01X4923Y15544D01*
G01X4996Y15544D01*
G01X4705Y16053D02*
G01X4960Y16053D01*
G01X5235Y15834D02*
G01X5672Y15834D01*
G01X5672Y15907D01*
G01X5635Y15980D01*
G01X5600Y16015D01*
G01X5527Y16053D01*
G01X5418Y16053D01*
G01X5344Y16015D01*
G01X5272Y15944D01*
G01X5235Y15834D01*
G01X5235Y15761D01*
G01X5272Y15653D01*
G01X5344Y15580D01*
G01X5418Y15544D01*
G01X5527Y15544D01*
G01X5600Y15580D01*
G01X5672Y15653D01*
G01X5913Y16053D02*
G01X5913Y15544D01*
G01X5913Y15834D02*
G01X5948Y15944D01*
G01X6022Y16015D01*
G01X6094Y16053D01*
G01X6203Y16053D01*
G54D14*
G01X19500Y12629D03*
G01X19500Y11369D03*
G01X19500Y9629D03*
G01X19500Y8369D03*
G01X21500Y3869D03*
G01X21500Y5129D03*
G01X21500Y6869D03*
G01X21500Y8129D03*
G01X19500Y6629D03*
G01X19500Y5369D03*
G54D15*
G01X2870Y11000D03*
G01X4129Y11000D03*
G01X12129Y9500D03*
G01X10870Y9500D03*
G01X12129Y7500D03*
G01X10870Y7500D03*
G54D14*
G01X23500Y17369D03*
G01X23500Y18629D03*
G54D15*
G01X12129Y3500D03*
G01X10870Y3500D03*
G01X12129Y17500D03*
G01X10870Y17500D03*
G01X12129Y15500D03*
G01X10870Y15500D03*
G01X12129Y13500D03*
G01X10870Y13500D03*
G01X12129Y11500D03*
G01X10870Y11500D03*
G54D14*
G01X19500Y18629D03*
G01X19500Y17369D03*
G01X19500Y15629D03*
G01X19500Y14369D03*
G01X21500Y17129D03*
G01X21500Y15869D03*
G01X21500Y9869D03*
G01X21500Y11129D03*
G54D15*
G01X12129Y5500D03*
G01X10870Y5500D03*
G54D16*
G01X13610Y18500D03*
G01X13610Y17500D03*
G01X13610Y16500D03*
G01X13610Y15500D03*
G01X13610Y14500D03*
G01X13610Y13500D03*
G01X13610Y12500D03*
G01X13610Y11500D03*
G01X17389Y11500D03*
G01X17389Y12500D03*
G01X17389Y13500D03*
G01X17389Y14500D03*
G01X17389Y15500D03*
G01X17389Y16500D03*
G01X17389Y17500D03*
G01X17389Y18500D03*
G01X13610Y9500D03*
G01X13610Y8500D03*
G01X13610Y7500D03*
G01X13610Y6500D03*
G01X13610Y5500D03*
G01X13610Y4500D03*
G01X13610Y3500D03*
G01X13610Y2500D03*
G01X17389Y2500D03*
G01X17389Y3500D03*
G01X17389Y4500D03*
G01X17389Y5500D03*
G01X17389Y6500D03*
G01X17389Y7500D03*
G01X17389Y8500D03*
G01X17389Y9500D03*
G54D17*
G01X6000Y12000D03*
G01X6000Y7000D03*
G01X24000Y14500D03*
G01X24000Y13500D03*
G01X24000Y12500D03*
G01X24000Y11500D03*
G01X24000Y10500D03*
G01X24000Y9500D03*
G01X24000Y8500D03*
G01X24000Y7500D03*
G54D18*
G01X8800Y17069D03*
G01X8800Y18069D03*
G01X8800Y19069D03*
G54D17*
G01X1500Y13500D03*
G01X1500Y12500D03*
G01X1500Y11500D03*
G01X1500Y10500D03*
G01X1500Y9500D03*
G01X1500Y8500D03*
G01X1500Y7500D03*
G01X1500Y6500D03*
G01X1500Y5500D03*
G01X1500Y4500D03*
G01X1500Y3500D03*
G01X1500Y2500D03*
G01X7500Y2500D03*
G01X7500Y3500D03*
G01X7500Y4500D03*
G01X7500Y5500D03*
G01X7500Y6500D03*
G01X7500Y7500D03*
G01X7500Y8500D03*
G01X7500Y9500D03*
G01X7500Y10500D03*
G01X7500Y11500D03*
G01X7500Y12500D03*
G01X7500Y13500D03*
M00*
M02*
